<?xml version="1.0" encoding="UTF-8" standalone="no"?>
<!-- Created with Inkscape (http://www.inkscape.org/) -->

<svg
   xmlns:dc="http://purl.org/dc/elements/1.1/"
   xmlns:cc="http://creativecommons.org/ns#"
   xmlns:rdf="http://www.w3.org/1999/02/22-rdf-syntax-ns#"
   xmlns:svg="http://www.w3.org/2000/svg"
   xmlns="http://www.w3.org/2000/svg"
   xmlns:sodipodi="http://sodipodi.sourceforge.net/DTD/sodipodi-0.dtd"
   xmlns:inkscape="http://www.inkscape.org/namespaces/inkscape"
   width="210mm"
   height="297mm"
   viewBox="0 0 210 297"
   version="1.1"
   id="svg32"
   inkscape:version="0.92.2 (5c3e80d, 2017-08-06)"
   sodipodi:docname="earth_icon.svg"
   inkscape:export-filename="C:\Users\Lenovo\AndroidStudioProjects\HawKings\android\res\drawable-xxxhdpi\earth.png"
   inkscape:export-xdpi="41.090446"
   inkscape:export-ydpi="41.090446">
  <defs
     id="defs26" />
  <sodipodi:namedview
     id="base"
     pagecolor="#ffffff"
     bordercolor="#666666"
     borderopacity="1.0"
     inkscape:pageopacity="0.0"
     inkscape:pageshadow="2"
     inkscape:zoom="1.4"
     inkscape:cx="394.97351"
     inkscape:cy="681.95493"
     inkscape:document-units="mm"
     inkscape:current-layer="layer3"
     showgrid="false"
     inkscape:window-width="1600"
     inkscape:window-height="837"
     inkscape:window-x="-8"
     inkscape:window-y="-8"
     inkscape:window-maximized="1" />
  <metadata
     id="metadata29">
    <rdf:RDF>
      <cc:Work
         rdf:about="">
        <dc:format>image/svg+xml</dc:format>
        <dc:type
           rdf:resource="http://purl.org/dc/dcmitype/StillImage" />
        <dc:title />
      </cc:Work>
    </rdf:RDF>
  </metadata>
  <g
     inkscape:groupmode="layer"
     id="layer2"
     inkscape:label="Ebene 2" />
  <g
     inkscape:label="Ebene 1"
     inkscape:groupmode="layer"
     id="layer1">
    <g
       inkscape:groupmode="layer"
       id="layer3"
       inkscape:label="Ebene 3">
      <g
         id="g898"
         transform="matrix(0.97515528,0,0,1,1.4179978,0)"
         inkscape:export-filename="C:\Users\Lenovo\AndroidStudioProjects\CircleSafe\app\src\main\res\drawable-small\earth.png"
         inkscape:export-xdpi="42.802551"
         inkscape:export-ydpi="42.802551">
        <path
           d="m 178.78274,117.08333 a 60.854164,59.342258 0 0 1 -60.06796,59.3373 60.854164,59.342258 0 0 1 -61.620056,-57.80409 60.854164,59.342258 0 0 1 58.475766,-60.830901 60.854164,59.342258 0 0 1 63.131,56.232291"
           sodipodi:open="true"
           sodipodi:end="6.2315061"
           sodipodi:start="0"
           sodipodi:ry="59.342258"
           sodipodi:rx="60.854164"
           sodipodi:cy="117.08333"
           sodipodi:cx="117.92857"
           sodipodi:type="arc"
           id="path4622"
           style="fill:#000080;fill-opacity:1;stroke-width:0.24973549;paint-order:stroke fill markers" />
        <path
           sodipodi:open="true"
           style="fill:#0055d4;stroke-width:0.36392397"
           d="M 170.46727,117.08334 A 52.916672,52.916664 0 0 1 118.23419,169.99559 52.916672,52.916664 0 0 1 64.651588,118.4504 52.916672,52.916664 0 0 1 115.50029,64.206415 52.916672,52.916664 0 0 1 170.39664,114.35013"
           sodipodi:end="6.2315111"
           sodipodi:start="0"
           sodipodi:ry="52.916664"
           sodipodi:rx="52.916672"
           sodipodi:cy="117.08334"
           sodipodi:cx="117.5506"
           sodipodi:type="arc"
           id="path34" />
        <path
           d="m 74.083337,109.90179 a 4.3467269,8.6934528 0 0 1 -4.290569,8.69272 4.3467269,8.6934528 0 0 1 -4.401433,-8.46811 4.3467269,8.6934528 0 0 1 4.176841,-8.91154 4.3467269,8.6934528 0 0 1 4.509358,8.23786"
           sodipodi:open="true"
           sodipodi:end="6.2315061"
           sodipodi:start="0"
           sodipodi:ry="8.6934528"
           sodipodi:rx="4.3467269"
           sodipodi:cy="109.90179"
           sodipodi:cx="69.73661"
           sodipodi:type="arc"
           id="path4574"
           style="fill:#dde9af;fill-opacity:1;stroke-width:0.23475005" />
        <path
           d="m 70.303572,119.35117 a 2.8348219,9.8273811 0 0 1 -2.798198,9.82656 2.8348219,9.8273811 0 0 1 -2.8705,-9.57265 2.8348219,9.8273811 0 0 1 2.724027,-10.07391 2.8348219,9.8273811 0 0 1 2.940886,9.31236"
           sodipodi:open="true"
           sodipodi:end="6.2315061"
           sodipodi:start="0"
           sodipodi:ry="9.8273811"
           sodipodi:rx="2.8348219"
           sodipodi:cy="119.35117"
           sodipodi:cx="67.46875"
           sodipodi:type="arc"
           id="path4576"
           style="fill:#99ff55;fill-opacity:1;stroke-width:0.16733719" />
        <path
           d="m 165.13123,97.324425 a 11.339286,12.284226 0 0 1 -11.19279,12.283205 11.339286,12.284226 0 0 1 -11.48199,-11.965821 11.339286,12.284226 0 0 1 10.8961,-12.592385 11.339286,12.284226 0 0 1 11.76354,11.640444"
           sodipodi:open="true"
           sodipodi:end="6.2315061"
           sodipodi:start="0"
           sodipodi:ry="12.284226"
           sodipodi:rx="11.339286"
           sodipodi:cy="97.324425"
           sodipodi:cx="153.79195"
           sodipodi:type="arc"
           id="path4578"
           style="fill:#99ff55;fill-opacity:1;stroke-width:0.26636505" />
        <path
           d="m 144.38692,98.562492 a 14.741072,11.339286 0 0 1 -14.55063,11.338338 14.741072,11.339286 0 0 1 -14.9266,-11.045368 14.741072,11.339286 0 0 1 14.16494,-11.623739 14.741072,11.339286 0 0 1 15.2926,10.745025"
           sodipodi:open="true"
           sodipodi:end="6.2315061"
           sodipodi:start="0"
           sodipodi:ry="11.339286"
           sodipodi:rx="14.741072"
           sodipodi:cy="98.562492"
           sodipodi:cx="129.64584"
           sodipodi:type="arc"
           id="path4580"
           style="fill:#dde9af;fill-opacity:1;stroke-width:0.55128479" />
        <path
           d="m 119.06249,139.76192 a 18.898809,8.3154764 0 0 1 -18.65465,8.31478 18.898809,8.3154764 0 0 1 -19.13666,-8.09994 18.898809,8.3154764 0 0 1 18.160178,-8.52407 18.898809,8.3154764 0 0 1 19.605902,7.87968"
           sodipodi:open="true"
           sodipodi:end="6.2315061"
           sodipodi:start="0"
           sodipodi:ry="8.3154764"
           sodipodi:rx="18.898809"
           sodipodi:cy="139.76192"
           sodipodi:cx="100.16368"
           sodipodi:type="arc"
           id="path4582"
           style="fill:#00ff00;fill-opacity:1;stroke-width:0.26458332" />
        <path
           d="m 122.08631,146.75447 a 18.331846,5.4806547 0 0 1 -18.09501,5.4802 18.331846,5.4806547 0 0 1 -18.562563,-5.3386 18.331846,5.4806547 0 0 1 17.615373,-5.61814 18.331846,5.4806547 0 0 1 19.01773,5.19343"
           sodipodi:open="true"
           sodipodi:end="6.2315061"
           sodipodi:start="0"
           sodipodi:ry="5.4806547"
           sodipodi:rx="18.331846"
           sodipodi:cy="146.75447"
           sodipodi:cx="103.75446"
           sodipodi:type="arc"
           id="path4584"
           style="fill:#00ff00;fill-opacity:1;stroke-width:0.31536591" />
        <path
           d="m 120.95238,131.25746 a 10.96131,8.1264887 0 0 1 -10.81969,8.12581 10.96131,8.1264887 0 0 1 -11.099268,-7.91585 10.96131,8.1264887 0 0 1 10.532908,-8.33034 10.96131,8.1264887 0 0 1 11.37142,7.7006"
           sodipodi:open="true"
           sodipodi:end="6.2315061"
           sodipodi:start="0"
           sodipodi:ry="8.1264887"
           sodipodi:rx="10.96131"
           sodipodi:cy="131.25746"
           sodipodi:cx="109.99107"
           sodipodi:type="arc"
           id="path4586"
           style="fill:#99ff55;fill-opacity:1;stroke-width:0.4109135" />
        <path
           d="m 104.32142,129.74554 a 14.741071,7.7485123 0 0 1 -14.550621,7.74787 14.741071,7.7485123 0 0 1 -14.926596,-7.54767 14.741071,7.7485123 0 0 1 14.164938,-7.94289 14.741071,7.7485123 0 0 1 15.292599,7.34244"
           sodipodi:open="true"
           sodipodi:end="6.2315061"
           sodipodi:start="0"
           sodipodi:ry="7.7485123"
           sodipodi:rx="14.741071"
           sodipodi:cy="129.74554"
           sodipodi:cx="89.580353"
           sodipodi:type="arc"
           id="path4588"
           style="fill:#00ff00;fill-opacity:1;stroke-width:0.37594482" />
        <path
           d="m 122.0863,152.6131 a 14.930058,4.5357141 0 0 1 -14.73717,4.53533 14.930058,4.5357141 0 0 1 -15.117961,-4.41814 14.930058,4.5357141 0 0 1 14.346541,-4.6495 14.930058,4.5357141 0 0 1 15.48866,4.29801"
           sodipodi:open="true"
           sodipodi:end="6.2315061"
           sodipodi:start="0"
           sodipodi:ry="4.5357141"
           sodipodi:rx="14.930058"
           sodipodi:cy="152.6131"
           sodipodi:cx="107.15624"
           sodipodi:type="arc"
           id="path4590"
           style="fill:#99ff55;fill-opacity:1;stroke-width:0.26975483" />
        <path
           d="m 122.08631,157.90477 a 12.095239,3.5907736 0 0 1 -11.93897,3.59047 12.095239,3.5907736 0 0 1 -12.247467,-3.4977 12.095239,3.5907736 0 0 1 11.622517,-3.68085 12.095239,3.5907736 0 0 1 12.54777,3.40259"
           sodipodi:open="true"
           sodipodi:end="6.2315061"
           sodipodi:start="0"
           sodipodi:ry="3.5907736"
           sodipodi:rx="12.095239"
           sodipodi:cy="157.90477"
           sodipodi:cx="109.99107"
           sodipodi:type="arc"
           id="path4595"
           style="fill:#99ff55;fill-opacity:1;stroke-width:0.26458332" />
        <path
           d="m 119.62945,162.2515 a 6.614583,3.4017856 0 0 1 -6.52912,3.4015 6.614583,3.4017856 0 0 1 -6.69784,-3.31361 6.614583,3.4017856 0 0 1 6.35607,-3.48713 6.614583,3.4017856 0 0 1 6.86206,3.22351"
           sodipodi:open="true"
           sodipodi:end="6.2315061"
           sodipodi:start="0"
           sodipodi:ry="3.4017856"
           sodipodi:rx="6.614583"
           sodipodi:cy="162.2515"
           sodipodi:cx="113.01487"
           sodipodi:type="arc"
           id="path4597"
           style="fill:#dde9af;fill-opacity:1;stroke-width:0.26458332" />
        <path
           d="m 153.64733,86.278275 a 14.930058,8.3154764 0 0 1 -14.73717,8.314782 14.930058,8.3154764 0 0 1 -15.11796,-8.099938 14.930058,8.3154764 0 0 1 14.34653,-8.524076 14.930058,8.3154764 0 0 1 15.48866,7.879686"
           sodipodi:open="true"
           sodipodi:end="6.2315061"
           sodipodi:start="0"
           sodipodi:ry="8.3154764"
           sodipodi:rx="14.930058"
           sodipodi:cy="86.278275"
           sodipodi:cx="138.71727"
           sodipodi:type="arc"
           id="path4599"
           style="fill:#dde9af;fill-opacity:1;stroke-width:0.26458332" />
        <path
           d="m 169.52234,107.82289 a 11.150297,10.205358 0 0 1 -11.00624,10.20451 11.150297,10.205358 0 0 1 -11.29064,-9.94084 11.150297,10.205358 0 0 1 10.71451,-10.461362 11.150297,10.205358 0 0 1 11.56748,9.670522"
           sodipodi:open="true"
           sodipodi:end="6.2315061"
           sodipodi:start="0"
           sodipodi:ry="10.205358"
           sodipodi:rx="11.150297"
           sodipodi:cy="107.82289"
           sodipodi:cx="158.37204"
           sodipodi:type="arc"
           id="path4601"
           style="fill:#00ff00;fill-opacity:1;stroke-width:0.34370381" />
        <path
           d="m 170.40573,118.83978 a 6.8035712,6.4255953 0 0 1 -6.71567,6.42506 6.8035712,6.4255953 0 0 1 -6.8892,-6.25904 6.8035712,6.4255953 0 0 1 6.53766,-6.58679 6.8035712,6.4255953 0 0 1 7.05813,6.08885"
           sodipodi:open="true"
           sodipodi:end="6.2315061"
           sodipodi:start="0"
           sodipodi:ry="6.4255953"
           sodipodi:rx="6.8035712"
           sodipodi:cy="118.83978"
           sodipodi:cx="163.60216"
           sodipodi:type="arc"
           id="path4603"
           style="fill:#dde9af;fill-opacity:1;stroke-width:0.26458332" />
        <path
           d="m 78.808032,100.0744 a 5.4806542,5.8586307 0 0 1 -5.409848,5.85814 5.4806542,5.8586307 0 0 1 -5.549631,-5.70677 5.4806542,5.8586307 0 0 1 5.266451,-6.005599 5.4806542,5.8586307 0 0 1 5.68571,5.551596"
           sodipodi:open="true"
           sodipodi:end="6.2315061"
           sodipodi:start="0"
           sodipodi:ry="5.8586307"
           sodipodi:rx="5.4806542"
           sodipodi:cy="100.0744"
           sodipodi:cx="73.327377"
           sodipodi:type="arc"
           id="path4605"
           style="fill:#ffffff;fill-opacity:1;stroke-width:0.26458332" />
        <path
           d="m 90.147331,80.041664 a 4.1577377,4.3467259 0 0 1 -4.104022,4.346363 4.1577377,4.3467259 0 0 1 -4.210065,-4.234058 4.1577377,4.3467259 0 0 1 3.995238,-4.455766 4.1577377,4.3467259 0 0 1 4.313298,4.118926"
           sodipodi:open="true"
           sodipodi:end="6.2315061"
           sodipodi:start="0"
           sodipodi:ry="4.3467259"
           sodipodi:rx="4.1577377"
           sodipodi:cy="80.041664"
           sodipodi:cx="85.989594"
           sodipodi:type="arc"
           id="path4607"
           style="fill:#ffffff;fill-opacity:1;stroke-width:0.19643387" />
        <path
           d="m 85.989577,82.120529 a 3.5907736,3.4017856 0 0 1 -3.544382,3.401502 3.5907736,3.4017856 0 0 1 -3.635966,-3.313611 3.5907736,3.4017856 0 0 1 3.450433,-3.487122 3.5907736,3.4017856 0 0 1 3.725121,3.223508"
           sodipodi:open="true"
           sodipodi:end="6.2315061"
           sodipodi:start="0"
           sodipodi:ry="3.4017856"
           sodipodi:rx="3.5907736"
           sodipodi:cy="82.120529"
           sodipodi:cx="82.398804"
           sodipodi:type="arc"
           id="path4609"
           style="fill:#ffffff;fill-opacity:1;stroke-width:0.26458332" />
        <path
           d="m 93.549095,76.828865 a 3.96875,3.7797618 0 0 1 -3.917476,3.779446 3.96875,3.7797618 0 0 1 -4.018699,-3.681789 3.96875,3.7797618 0 0 1 3.813637,-3.87458 3.96875,3.7797618 0 0 1 4.11724,3.581675"
           sodipodi:open="true"
           sodipodi:end="6.2315061"
           sodipodi:start="0"
           sodipodi:ry="3.7797618"
           sodipodi:rx="3.96875"
           sodipodi:cy="76.828865"
           sodipodi:cx="89.580345"
           sodipodi:type="arc"
           id="path4611"
           style="fill:#ffffff;fill-opacity:1;stroke-width:0.26458332" />
        <path
           d="m 135.88245,73.049095 a 6.614583,3.779762 0 0 1 -6.52913,3.779447 6.614583,3.779762 0 0 1 -6.69783,-3.68179 6.614583,3.779762 0 0 1 6.35606,-3.87458 6.614583,3.779762 0 0 1 6.86207,3.581675"
           sodipodi:open="true"
           sodipodi:end="6.2315061"
           sodipodi:start="0"
           sodipodi:ry="3.779762"
           sodipodi:rx="6.614583"
           sodipodi:cy="73.049095"
           sodipodi:cx="129.26787"
           sodipodi:type="arc"
           id="path4613"
           style="fill:#00ff00;fill-opacity:1;stroke-width:0.32497689" />
        <path
           d="m 130.2128,77.017853 a 6.0476189,3.2127976 0 0 1 -5.96949,3.212529 6.0476189,3.2127976 0 0 1 -6.12373,-3.129521 6.0476189,3.2127976 0 0 1 5.81125,-3.293393 6.0476189,3.2127976 0 0 1 6.27389,3.044424"
           sodipodi:open="true"
           sodipodi:end="6.2315061"
           sodipodi:start="0"
           sodipodi:ry="3.2127976"
           sodipodi:rx="6.0476189"
           sodipodi:cy="77.017853"
           sodipodi:cx="124.16518"
           sodipodi:type="arc"
           id="path4615"
           style="fill:#00ff00;fill-opacity:1;stroke-width:0.28930518" />
        <path
           d="m 140.79614,71.348213 a 4.5357146,3.2127974 0 0 1 -4.47712,3.212529 4.5357146,3.2127974 0 0 1 -4.5928,-3.129521 4.5357146,3.2127974 0 0 1 4.35844,-3.293392 4.5357146,3.2127974 0 0 1 4.70542,3.044423"
           sodipodi:open="true"
           sodipodi:end="6.2315061"
           sodipodi:start="0"
           sodipodi:ry="3.2127974"
           sodipodi:rx="4.5357146"
           sodipodi:cy="71.348213"
           sodipodi:cx="136.26042"
           sodipodi:type="arc"
           id="path4617"
           style="fill:#00ff00;fill-opacity:1;stroke-width:0.24918026" />
        <path
           d="m 150.24552,157.14882 a 3.4017861,3.0238097 0 0 1 -3.35784,3.02356 3.4017861,3.0238097 0 0 1 -3.4446,-2.94544 3.4017861,3.0238097 0 0 1 3.26884,-3.09966 3.4017861,3.0238097 0 0 1 3.52906,2.86534"
           sodipodi:open="true"
           sodipodi:end="6.2315061"
           sodipodi:start="0"
           sodipodi:ry="3.0238097"
           sodipodi:rx="3.4017861"
           sodipodi:cy="157.14882"
           sodipodi:cx="146.84373"
           sodipodi:type="arc"
           id="path4627"
           style="fill:#ffffff;fill-opacity:1;stroke-width:0.06336077;paint-order:stroke fill markers" />
        <path
           style="fill:#ffffff;fill-opacity:1;stroke-width:0.06336077;paint-order:stroke fill markers"
           id="path4630"
           sodipodi:type="arc"
           sodipodi:cx="150.62349"
           sodipodi:cy="154.12502"
           sodipodi:rx="3.4017861"
           sodipodi:ry="3.0238097"
           sodipodi:start="0"
           sodipodi:end="6.2315061"
           sodipodi:open="true"
           d="m 154.02528,154.12502 a 3.4017861,3.0238097 0 0 1 -3.35784,3.02355 3.4017861,3.0238097 0 0 1 -3.4446,-2.94543 3.4017861,3.0238097 0 0 1 3.26883,-3.09966 3.4017861,3.0238097 0 0 1 3.52906,2.86534" />
        <path
           d="m 149.86753,153.36906 a 3.4017861,3.0238097 0 0 1 -3.35784,3.02356 3.4017861,3.0238097 0 0 1 -3.4446,-2.94543 3.4017861,3.0238097 0 0 1 3.26884,-3.09966 3.4017861,3.0238097 0 0 1 3.52906,2.86534"
           sodipodi:open="true"
           sodipodi:end="6.2315061"
           sodipodi:start="0"
           sodipodi:ry="3.0238097"
           sodipodi:rx="3.4017861"
           sodipodi:cy="153.36906"
           sodipodi:cx="146.46574"
           sodipodi:type="arc"
           id="path4632"
           style="fill:#ffffff;fill-opacity:1;stroke-width:0.06336077;paint-order:stroke fill markers" />
        <path
           d="M 164.6529,106.04074 A 44.297459,41.559448 0 0 1 120.92774,147.59672 44.297459,41.559448 0 0 1 76.072767,107.1145 44.297459,41.559448 0 0 1 118.63892,64.512506 44.297459,41.559448 0 0 1 164.59376,103.89394"
           sodipodi:open="true"
           sodipodi:end="6.2315061"
           sodipodi:start="0"
           sodipodi:ry="41.559448"
           sodipodi:rx="44.297459"
           sodipodi:cy="106.04074"
           sodipodi:cx="120.35544"
           sodipodi:type="arc"
           id="path4635"
           style="opacity:0.1;fill:#ffffff;fill-opacity:1;stroke-width:0.54406458;paint-order:stroke fill markers" />
        <path
           d="M 162.37841,101.73913 A 36.304523,34.170681 0 0 1 126.54292,135.90696 36.304523,34.170681 0 0 1 89.781479,102.62199 36.304523,34.170681 0 0 1 124.66709,67.594111 36.304523,34.170681 0 0 1 162.32994,99.974"
           sodipodi:open="true"
           sodipodi:end="6.2315061"
           sodipodi:start="0"
           sodipodi:ry="34.170681"
           sodipodi:rx="36.304523"
           sodipodi:cy="101.73913"
           sodipodi:cx="126.07388"
           sodipodi:type="arc"
           id="path4637"
           style="opacity:0.18000004;fill:#ffffff;fill-opacity:1;stroke-width:0.30771729;paint-order:stroke fill markers" />
        <path
           d="M 170.467,116.93258 A 52.699677,49.992939 0 0 1 118.44817,166.92135 52.699677,49.992939 0 0 1 65.085235,118.22423 52.699677,49.992939 0 0 1 115.72522,66.977187 52.699677,49.992939 0 0 1 170.39664,114.35013"
           sodipodi:open="true"
           sodipodi:end="6.2315061"
           sodipodi:start="0"
           sodipodi:ry="49.992939"
           sodipodi:rx="52.699677"
           sodipodi:cy="116.93258"
           sodipodi:cx="117.76732"
           sodipodi:type="arc"
           id="path4639"
           style="opacity:0.12000002;fill:#ffffff;fill-opacity:1;stroke-width:0.34605646;paint-order:stroke fill markers" />
      </g>
    </g>
  </g>
</svg>
